  0
SECTION
  2
HEADER
  9
$ACADVER
  1
AC1009
  9
$EXTMIN
 10
0.0
 20
0.0
 30
0.0
  9
$EXTMAX
 10
1000.0
 20
1000.0
 30
0.0
  9
$FILLMODE
 70
 0
  9
$SPLFRAME
 70
 1
  0
ENDSEC
  0
SECTION
  2
TABLES
  0
TABLE
  2
LAYER
 70
1
  0
LAYER
  2
0
 70
     0
 62
     7
  6
CONTINUOUS
  0
ENDTAB
  0
ENDSEC
  0
SECTION
  2
ENTITIES
  0
LINE
  8
0
 62
     0
 10
0.0950846
 20
95.5075
 30
0.0
 11
285.845
 21
95.5075
 31
0.0
  0
LINE
  8
0
 62
     0
 10
285.845
 20
95.5075
 30
0.0
 11
285.845
 21
0.257693
 31
0.0
  0
LINE
  8
0
 62
     0
 10
285.845
 20
0.257693
 30
0.0
 11
0.0950846
 21
0.257693
 31
0.0
  0
LINE
  8
0
 62
     0
 10
0.0950846
 20
0.257693
 30
0.0
 11
0.0950846
 21
95.5075
 31
0.0
  0
LINE
  8
0
 62
     0
 10
128.826
 20
16.7831
 30
0.0
 11
128.826
 21
12.0826
 31
0.0
  0
LINE
  8
0
 62
     0
 10
128.826
 20
12.0826
 30
0.0
 11
127.301
 21
12.0826
 31
0.0
  0
LINE
  8
0
 62
     0
 10
127.301
 20
12.0826
 30
0.0
 11
127.301
 21
15.3128
 31
0.0
  0
LINE
  8
0
 62
     0
 10
127.301
 20
15.3128
 30
0.0
 11
120.551
 21
15.3128
 31
0.0
  0
LINE
  8
0
 62
     0
 10
120.551
 20
15.3128
 30
0.0
 11
120.551
 21
12.0826
 31
0.0
  0
LINE
  8
0
 62
     0
 10
120.551
 20
12.0826
 30
0.0
 11
119.725
 21
12.0826
 31
0.0
  0
LINE
  8
0
 62
     0
 10
119.725
 20
12.0826
 30
0.0
 11
119.725
 21
9.28384
 31
0.0
  0
LINE
  8
0
 62
     0
 10
119.725
 20
9.28384
 30
0.0
 11
120.551
 21
9.28384
 31
0.0
  0
LINE
  8
0
 62
     0
 10
120.551
 20
9.28384
 30
0.0
 11
120.551
 21
3.01377
 31
0.0
  0
LINE
  8
0
 62
     0
 10
120.551
 20
3.01377
 30
0.0
 11
122.276
 21
3.01377
 31
0.0
  0
LINE
  8
0
 62
     0
 10
122.276
 20
3.01377
 30
0.0
 11
122.276
 21
1.8135
 31
0.0
  0
LINE
  8
0
 62
     0
 10
122.276
 20
1.8135
 30
0.0
 11
125.575
 21
1.8135
 31
0.0
  0
LINE
  8
0
 62
     0
 10
125.575
 20
1.8135
 30
0.0
 11
125.575
 21
3.01377
 31
0.0
  0
LINE
  8
0
 62
     0
 10
125.575
 20
3.01377
 30
0.0
 11
127.301
 21
3.01377
 31
0.0
  0
LINE
  8
0
 62
     0
 10
127.301
 20
3.01377
 30
0.0
 11
127.301
 21
7.48411
 31
0.0
  0
LINE
  8
0
 62
     0
 10
127.301
 20
7.48411
 30
0.0
 11
128.826
 21
7.48411
 31
0.0
  0
LINE
  8
0
 62
     0
 10
128.826
 20
7.48411
 30
0.0
 11
128.826
 21
2.78364
 31
0.0
  0
LINE
  8
0
 62
     0
 10
128.826
 20
2.78364
 30
0.0
 11
142.825
 21
2.78364
 31
0.0
  0
LINE
  8
0
 62
     0
 10
142.825
 20
2.78364
 30
0.0
 11
142.825
 21
7.48411
 31
0.0
  0
LINE
  8
0
 62
     0
 10
142.825
 20
7.48411
 30
0.0
 11
144.351
 21
7.48411
 31
0.0
  0
LINE
  8
0
 62
     0
 10
144.351
 20
7.48411
 30
0.0
 11
144.351
 21
3.01377
 31
0.0
  0
LINE
  8
0
 62
     0
 10
144.351
 20
3.01377
 30
0.0
 11
146.075
 21
3.01377
 31
0.0
  0
LINE
  8
0
 62
     0
 10
146.075
 20
3.01377
 30
0.0
 11
146.075
 21
1.8135
 31
0.0
  0
LINE
  8
0
 62
     0
 10
146.075
 20
1.8135
 30
0.0
 11
149.375
 21
1.8135
 31
0.0
  0
LINE
  8
0
 62
     0
 10
149.375
 20
1.8135
 30
0.0
 11
149.375
 21
3.01377
 31
0.0
  0
LINE
  8
0
 62
     0
 10
149.375
 20
3.01377
 30
0.0
 11
151.1
 21
3.01377
 31
0.0
  0
LINE
  8
0
 62
     0
 10
151.1
 20
3.01377
 30
0.0
 11
151.1
 21
9.28384
 31
0.0
  0
LINE
  8
0
 62
     0
 10
151.1
 20
9.28384
 30
0.0
 11
151.926
 21
9.28384
 31
0.0
  0
LINE
  8
0
 62
     0
 10
151.926
 20
9.28384
 30
0.0
 11
151.926
 21
12.0826
 31
0.0
  0
LINE
  8
0
 62
     0
 10
151.926
 20
12.0826
 30
0.0
 11
151.1
 21
12.0826
 31
0.0
  0
LINE
  8
0
 62
     0
 10
151.1
 20
12.0826
 30
0.0
 11
151.1
 21
15.3128
 31
0.0
  0
LINE
  8
0
 62
     0
 10
151.1
 20
15.3128
 30
0.0
 11
144.351
 21
15.3128
 31
0.0
  0
LINE
  8
0
 62
     0
 10
144.351
 20
15.3128
 30
0.0
 11
144.351
 21
12.0826
 31
0.0
  0
LINE
  8
0
 62
     0
 10
144.351
 20
12.0826
 30
0.0
 11
142.825
 21
12.0826
 31
0.0
  0
LINE
  8
0
 62
     0
 10
142.825
 20
12.0826
 30
0.0
 11
142.825
 21
16.7831
 31
0.0
  0
LINE
  8
0
 62
     0
 10
142.825
 20
16.7831
 30
0.0
 11
128.826
 21
16.7831
 31
0.0
  0
LINE
  8
0
 62
     0
 10
81.201
 20
16.7831
 30
0.0
 11
81.201
 21
12.0826
 31
0.0
  0
LINE
  8
0
 62
     0
 10
81.201
 20
12.0826
 30
0.0
 11
79.6756
 21
12.0826
 31
0.0
  0
LINE
  8
0
 62
     0
 10
79.6756
 20
12.0826
 30
0.0
 11
79.6756
 21
15.3128
 31
0.0
  0
LINE
  8
0
 62
     0
 10
79.6756
 20
15.3128
 30
0.0
 11
72.9259
 21
15.3128
 31
0.0
  0
LINE
  8
0
 62
     0
 10
72.9259
 20
15.3128
 30
0.0
 11
72.9259
 21
12.0826
 31
0.0
  0
LINE
  8
0
 62
     0
 10
72.9259
 20
12.0826
 30
0.0
 11
72.1004
 21
12.0826
 31
0.0
  0
LINE
  8
0
 62
     0
 10
72.1004
 20
12.0826
 30
0.0
 11
72.1004
 21
9.28384
 31
0.0
  0
LINE
  8
0
 62
     0
 10
72.1004
 20
9.28384
 30
0.0
 11
72.9259
 21
9.28384
 31
0.0
  0
LINE
  8
0
 62
     0
 10
72.9259
 20
9.28384
 30
0.0
 11
72.9259
 21
3.01377
 31
0.0
  0
LINE
  8
0
 62
     0
 10
72.9259
 20
3.01377
 30
0.0
 11
74.651
 21
3.01377
 31
0.0
  0
LINE
  8
0
 62
     0
 10
74.651
 20
3.01377
 30
0.0
 11
74.651
 21
1.8135
 31
0.0
  0
LINE
  8
0
 62
     0
 10
74.651
 20
1.8135
 30
0.0
 11
77.9501
 21
1.8135
 31
0.0
  0
LINE
  8
0
 62
     0
 10
77.9501
 20
1.8135
 30
0.0
 11
77.9501
 21
3.01377
 31
0.0
  0
LINE
  8
0
 62
     0
 10
77.9501
 20
3.01377
 30
0.0
 11
79.6756
 21
3.01377
 31
0.0
  0
LINE
  8
0
 62
     0
 10
79.6756
 20
3.01377
 30
0.0
 11
79.6756
 21
7.48411
 31
0.0
  0
LINE
  8
0
 62
     0
 10
79.6756
 20
7.48411
 30
0.0
 11
81.201
 21
7.48411
 31
0.0
  0
LINE
  8
0
 62
     0
 10
81.201
 20
7.48411
 30
0.0
 11
81.201
 21
2.78364
 31
0.0
  0
LINE
  8
0
 62
     0
 10
81.201
 20
2.78364
 30
0.0
 11
95.2003
 21
2.78364
 31
0.0
  0
LINE
  8
0
 62
     0
 10
95.2003
 20
2.78364
 30
0.0
 11
95.2003
 21
7.48411
 31
0.0
  0
LINE
  8
0
 62
     0
 10
95.2003
 20
7.48411
 30
0.0
 11
96.726
 21
7.48411
 31
0.0
  0
LINE
  8
0
 62
     0
 10
96.726
 20
7.48411
 30
0.0
 11
96.726
 21
3.01377
 31
0.0
  0
LINE
  8
0
 62
     0
 10
96.726
 20
3.01377
 30
0.0
 11
98.4497
 21
3.01377
 31
0.0
  0
LINE
  8
0
 62
     0
 10
98.4497
 20
3.01377
 30
0.0
 11
98.4497
 21
1.8135
 31
0.0
  0
LINE
  8
0
 62
     0
 10
98.4497
 20
1.8135
 30
0.0
 11
101.75
 21
1.8135
 31
0.0
  0
LINE
  8
0
 62
     0
 10
101.75
 20
1.8135
 30
0.0
 11
101.75
 21
3.01377
 31
0.0
  0
LINE
  8
0
 62
     0
 10
101.75
 20
3.01377
 30
0.0
 11
103.475
 21
3.01377
 31
0.0
  0
LINE
  8
0
 62
     0
 10
103.475
 20
3.01377
 30
0.0
 11
103.475
 21
9.28384
 31
0.0
  0
LINE
  8
0
 62
     0
 10
103.475
 20
9.28384
 30
0.0
 11
104.301
 21
9.28384
 31
0.0
  0
LINE
  8
0
 62
     0
 10
104.301
 20
9.28384
 30
0.0
 11
104.301
 21
12.0826
 31
0.0
  0
LINE
  8
0
 62
     0
 10
104.301
 20
12.0826
 30
0.0
 11
103.475
 21
12.0826
 31
0.0
  0
LINE
  8
0
 62
     0
 10
103.475
 20
12.0826
 30
0.0
 11
103.475
 21
15.3128
 31
0.0
  0
LINE
  8
0
 62
     0
 10
103.475
 20
15.3128
 30
0.0
 11
96.726
 21
15.3128
 31
0.0
  0
LINE
  8
0
 62
     0
 10
96.726
 20
15.3128
 30
0.0
 11
96.726
 21
12.0826
 31
0.0
  0
LINE
  8
0
 62
     0
 10
96.726
 20
12.0826
 30
0.0
 11
95.2003
 21
12.0826
 31
0.0
  0
LINE
  8
0
 62
     0
 10
95.2003
 20
12.0826
 30
0.0
 11
95.2003
 21
16.7831
 31
0.0
  0
LINE
  8
0
 62
     0
 10
95.2003
 20
16.7831
 30
0.0
 11
81.201
 21
16.7831
 31
0.0
  0
LINE
  8
0
 62
     0
 10
269.32
 20
16.7831
 30
0.0
 11
283.319
 21
16.7831
 31
0.0
  0
LINE
  8
0
 62
     0
 10
283.319
 20
16.7831
 30
0.0
 11
283.319
 21
2.78364
 31
0.0
  0
LINE
  8
0
 62
     0
 10
283.319
 20
2.78364
 30
0.0
 11
269.32
 21
2.78364
 31
0.0
  0
LINE
  8
0
 62
     0
 10
269.32
 20
2.78364
 30
0.0
 11
269.32
 21
16.7831
 31
0.0
  0
LINE
  8
0
 62
     0
 10
250.27
 20
16.7831
 30
0.0
 11
264.269
 21
16.7831
 31
0.0
  0
LINE
  8
0
 62
     0
 10
264.269
 20
16.7831
 30
0.0
 11
264.269
 21
2.78364
 31
0.0
  0
LINE
  8
0
 62
     0
 10
264.269
 20
2.78364
 30
0.0
 11
250.27
 21
2.78364
 31
0.0
  0
LINE
  8
0
 62
     0
 10
250.27
 20
2.78364
 30
0.0
 11
250.27
 21
16.7831
 31
0.0
  0
LINE
  8
0
 62
     0
 10
231.22
 20
16.7831
 30
0.0
 11
245.219
 21
16.7831
 31
0.0
  0
LINE
  8
0
 62
     0
 10
245.219
 20
16.7831
 30
0.0
 11
245.219
 21
2.78364
 31
0.0
  0
LINE
  8
0
 62
     0
 10
245.219
 20
2.78364
 30
0.0
 11
231.22
 21
2.78364
 31
0.0
  0
LINE
  8
0
 62
     0
 10
231.22
 20
2.78364
 30
0.0
 11
231.22
 21
16.7831
 31
0.0
  0
LINE
  8
0
 62
     0
 10
212.17
 20
16.7831
 30
0.0
 11
226.169
 21
16.7831
 31
0.0
  0
LINE
  8
0
 62
     0
 10
226.169
 20
16.7831
 30
0.0
 11
226.169
 21
2.78364
 31
0.0
  0
LINE
  8
0
 62
     0
 10
226.169
 20
2.78364
 30
0.0
 11
212.17
 21
2.78364
 31
0.0
  0
LINE
  8
0
 62
     0
 10
212.17
 20
2.78364
 30
0.0
 11
212.17
 21
16.7831
 31
0.0
  0
LINE
  8
0
 62
     0
 10
193.118
 20
16.7831
 30
0.0
 11
207.119
 21
16.7831
 31
0.0
  0
LINE
  8
0
 62
     0
 10
207.119
 20
16.7831
 30
0.0
 11
207.119
 21
2.78364
 31
0.0
  0
LINE
  8
0
 62
     0
 10
207.119
 20
2.78364
 30
0.0
 11
193.118
 21
2.78364
 31
0.0
  0
LINE
  8
0
 62
     0
 10
193.118
 20
2.78364
 30
0.0
 11
193.118
 21
16.7831
 31
0.0
  0
LINE
  8
0
 62
     0
 10
166.926
 20
16.7831
 30
0.0
 11
180.925
 21
16.7831
 31
0.0
  0
LINE
  8
0
 62
     0
 10
180.925
 20
16.7831
 30
0.0
 11
180.925
 21
2.78364
 31
0.0
  0
LINE
  8
0
 62
     0
 10
180.925
 20
2.78364
 30
0.0
 11
166.926
 21
2.78364
 31
0.0
  0
LINE
  8
0
 62
     0
 10
166.926
 20
2.78364
 30
0.0
 11
166.926
 21
16.7831
 31
0.0
  0
LINE
  8
0
 62
     0
 10
45.4822
 20
16.7831
 30
0.0
 11
59.4815
 21
16.7831
 31
0.0
  0
LINE
  8
0
 62
     0
 10
59.4815
 20
16.7831
 30
0.0
 11
59.4815
 21
2.78364
 31
0.0
  0
LINE
  8
0
 62
     0
 10
59.4815
 20
2.78364
 30
0.0
 11
45.4822
 21
2.78364
 31
0.0
  0
LINE
  8
0
 62
     0
 10
45.4822
 20
2.78364
 30
0.0
 11
45.4822
 21
16.7831
 31
0.0
  0
LINE
  8
0
 62
     0
 10
26.4322
 20
16.7831
 30
0.0
 11
40.4315
 21
16.7831
 31
0.0
  0
LINE
  8
0
 62
     0
 10
40.4315
 20
16.7831
 30
0.0
 11
40.4315
 21
2.78364
 31
0.0
  0
LINE
  8
0
 62
     0
 10
40.4315
 20
2.78364
 30
0.0
 11
26.4322
 21
2.78364
 31
0.0
  0
LINE
  8
0
 62
     0
 10
26.4322
 20
2.78364
 30
0.0
 11
26.4322
 21
16.7831
 31
0.0
  0
LINE
  8
0
 62
     0
 10
5.00091
 20
16.7831
 30
0.0
 11
19.0004
 21
16.7831
 31
0.0
  0
LINE
  8
0
 62
     0
 10
19.0004
 20
16.7831
 30
0.0
 11
19.0004
 21
2.78364
 31
0.0
  0
LINE
  8
0
 62
     0
 10
19.0004
 20
2.78364
 30
0.0
 11
5.00091
 21
2.78364
 31
0.0
  0
LINE
  8
0
 62
     0
 10
5.00091
 20
2.78364
 30
0.0
 11
5.00091
 21
16.7831
 31
0.0
  0
LINE
  8
0
 62
     0
 10
12.1447
 20
35.833
 30
0.0
 11
12.1447
 21
31.1326
 31
0.0
  0
LINE
  8
0
 62
     0
 10
12.1447
 20
31.1326
 30
0.0
 11
10.6192
 21
31.1326
 31
0.0
  0
LINE
  8
0
 62
     0
 10
10.6192
 20
31.1326
 30
0.0
 11
10.6192
 21
34.3628
 31
0.0
  0
LINE
  8
0
 62
     0
 10
10.6192
 20
34.3628
 30
0.0
 11
3.86955
 21
34.3628
 31
0.0
  0
LINE
  8
0
 62
     0
 10
3.86955
 20
34.3628
 30
0.0
 11
3.86955
 21
31.1326
 31
0.0
  0
LINE
  8
0
 62
     0
 10
3.86955
 20
31.1326
 30
0.0
 11
3.04409
 21
31.1326
 31
0.0
  0
LINE
  8
0
 62
     0
 10
3.04409
 20
31.1326
 30
0.0
 11
3.04409
 21
28.3338
 31
0.0
  0
LINE
  8
0
 62
     0
 10
3.04409
 20
28.3338
 30
0.0
 11
3.86955
 21
28.3338
 31
0.0
  0
LINE
  8
0
 62
     0
 10
3.86955
 20
28.3338
 30
0.0
 11
3.86955
 21
22.0638
 31
0.0
  0
LINE
  8
0
 62
     0
 10
3.86955
 20
22.0638
 30
0.0
 11
5.59484
 21
22.0638
 31
0.0
  0
LINE
  8
0
 62
     0
 10
5.59484
 20
22.0638
 30
0.0
 11
5.59484
 21
20.8635
 31
0.0
  0
LINE
  8
0
 62
     0
 10
5.59484
 20
20.8635
 30
0.0
 11
8.89385
 21
20.8635
 31
0.0
  0
LINE
  8
0
 62
     0
 10
8.89385
 20
20.8635
 30
0.0
 11
8.89385
 21
22.0638
 31
0.0
  0
LINE
  8
0
 62
     0
 10
8.89385
 20
22.0638
 30
0.0
 11
10.6192
 21
22.0638
 31
0.0
  0
LINE
  8
0
 62
     0
 10
10.6192
 20
22.0638
 30
0.0
 11
10.6192
 21
26.5327
 31
0.0
  0
LINE
  8
0
 62
     0
 10
10.6192
 20
26.5327
 30
0.0
 11
12.1447
 21
26.5327
 31
0.0
  0
LINE
  8
0
 62
     0
 10
12.1447
 20
26.5327
 30
0.0
 11
12.1447
 21
21.8336
 31
0.0
  0
LINE
  8
0
 62
     0
 10
12.1447
 20
21.8336
 30
0.0
 11
26.1441
 21
21.8336
 31
0.0
  0
LINE
  8
0
 62
     0
 10
26.1441
 20
21.8336
 30
0.0
 11
26.1441
 21
26.5327
 31
0.0
  0
LINE
  8
0
 62
     0
 10
26.1441
 20
26.5327
 30
0.0
 11
27.6696
 21
26.5327
 31
0.0
  0
LINE
  8
0
 62
     0
 10
27.6696
 20
26.5327
 30
0.0
 11
27.6696
 21
22.0638
 31
0.0
  0
LINE
  8
0
 62
     0
 10
27.6696
 20
22.0638
 30
0.0
 11
29.3949
 21
22.0638
 31
0.0
  0
LINE
  8
0
 62
     0
 10
29.3949
 20
22.0638
 30
0.0
 11
29.3949
 21
20.8635
 31
0.0
  0
LINE
  8
0
 62
     0
 10
29.3949
 20
20.8635
 30
0.0
 11
32.694
 21
20.8635
 31
0.0
  0
LINE
  8
0
 62
     0
 10
32.694
 20
20.8635
 30
0.0
 11
32.694
 21
22.0638
 31
0.0
  0
LINE
  8
0
 62
     0
 10
32.694
 20
22.0638
 30
0.0
 11
34.4193
 21
22.0638
 31
0.0
  0
LINE
  8
0
 62
     0
 10
34.4193
 20
22.0638
 30
0.0
 11
34.4193
 21
28.3338
 31
0.0
  0
LINE
  8
0
 62
     0
 10
34.4193
 20
28.3338
 30
0.0
 11
35.2447
 21
28.3338
 31
0.0
  0
LINE
  8
0
 62
     0
 10
35.2447
 20
28.3338
 30
0.0
 11
35.2447
 21
31.1326
 31
0.0
  0
LINE
  8
0
 62
     0
 10
35.2447
 20
31.1326
 30
0.0
 11
34.4193
 21
31.1326
 31
0.0
  0
LINE
  8
0
 62
     0
 10
34.4193
 20
31.1326
 30
0.0
 11
34.4193
 21
34.3628
 31
0.0
  0
LINE
  8
0
 62
     0
 10
34.4193
 20
34.3628
 30
0.0
 11
27.6696
 21
34.3628
 31
0.0
  0
LINE
  8
0
 62
     0
 10
27.6696
 20
34.3628
 30
0.0
 11
27.6696
 21
31.1326
 31
0.0
  0
LINE
  8
0
 62
     0
 10
27.6696
 20
31.1326
 30
0.0
 11
26.1441
 21
31.1326
 31
0.0
  0
LINE
  8
0
 62
     0
 10
26.1441
 20
31.1326
 30
0.0
 11
26.1441
 21
35.833
 31
0.0
  0
LINE
  8
0
 62
     0
 10
26.1441
 20
35.833
 30
0.0
 11
12.1447
 21
35.833
 31
0.0
  0
LINE
  8
0
 62
     0
 10
269.32
 20
35.833
 30
0.0
 11
283.319
 21
35.833
 31
0.0
  0
LINE
  8
0
 62
     0
 10
283.319
 20
35.833
 30
0.0
 11
283.319
 21
21.8336
 31
0.0
  0
LINE
  8
0
 62
     0
 10
283.319
 20
21.8336
 30
0.0
 11
269.32
 21
21.8336
 31
0.0
  0
LINE
  8
0
 62
     0
 10
269.32
 20
21.8336
 30
0.0
 11
269.32
 21
35.833
 31
0.0
  0
LINE
  8
0
 62
     0
 10
250.27
 20
35.833
 30
0.0
 11
264.269
 21
35.833
 31
0.0
  0
LINE
  8
0
 62
     0
 10
264.269
 20
35.833
 30
0.0
 11
264.269
 21
21.8336
 31
0.0
  0
LINE
  8
0
 62
     0
 10
264.269
 20
21.8336
 30
0.0
 11
250.27
 21
21.8336
 31
0.0
  0
LINE
  8
0
 62
     0
 10
250.27
 20
21.8336
 30
0.0
 11
250.27
 21
35.833
 31
0.0
  0
LINE
  8
0
 62
     0
 10
231.22
 20
35.833
 30
0.0
 11
245.219
 21
35.833
 31
0.0
  0
LINE
  8
0
 62
     0
 10
245.219
 20
35.833
 30
0.0
 11
245.219
 21
21.8336
 31
0.0
  0
LINE
  8
0
 62
     0
 10
245.219
 20
21.8336
 30
0.0
 11
231.22
 21
21.8336
 31
0.0
  0
LINE
  8
0
 62
     0
 10
231.22
 20
21.8336
 30
0.0
 11
231.22
 21
35.833
 31
0.0
  0
LINE
  8
0
 62
     0
 10
212.17
 20
35.833
 30
0.0
 11
226.169
 21
35.833
 31
0.0
  0
LINE
  8
0
 62
     0
 10
226.169
 20
35.833
 30
0.0
 11
226.169
 21
21.8336
 31
0.0
  0
LINE
  8
0
 62
     0
 10
226.169
 20
21.8336
 30
0.0
 11
212.17
 21
21.8336
 31
0.0
  0
LINE
  8
0
 62
     0
 10
212.17
 20
21.8336
 30
0.0
 11
212.17
 21
35.833
 31
0.0
  0
LINE
  8
0
 62
     0
 10
193.12
 20
35.833
 30
0.0
 11
207.119
 21
35.833
 31
0.0
  0
LINE
  8
0
 62
     0
 10
207.119
 20
35.833
 30
0.0
 11
207.119
 21
21.8336
 31
0.0
  0
LINE
  8
0
 62
     0
 10
207.119
 20
21.8336
 30
0.0
 11
193.12
 21
21.8336
 31
0.0
  0
LINE
  8
0
 62
     0
 10
193.12
 20
21.8336
 30
0.0
 11
193.12
 21
35.833
 31
0.0
  0
LINE
  8
0
 62
     0
 10
174.07
 20
35.833
 30
0.0
 11
188.069
 21
35.833
 31
0.0
  0
LINE
  8
0
 62
     0
 10
188.069
 20
35.833
 30
0.0
 11
188.069
 21
21.8336
 31
0.0
  0
LINE
  8
0
 62
     0
 10
188.069
 20
21.8336
 30
0.0
 11
174.07
 21
21.8336
 31
0.0
  0
LINE
  8
0
 62
     0
 10
174.07
 20
21.8336
 30
0.0
 11
174.07
 21
35.833
 31
0.0
  0
LINE
  8
0
 62
     0
 10
155.02
 20
35.833
 30
0.0
 11
169.019
 21
35.833
 31
0.0
  0
LINE
  8
0
 62
     0
 10
169.019
 20
35.833
 30
0.0
 11
169.019
 21
21.8336
 31
0.0
  0
LINE
  8
0
 62
     0
 10
169.019
 20
21.8336
 30
0.0
 11
155.02
 21
21.8336
 31
0.0
  0
LINE
  8
0
 62
     0
 10
155.02
 20
21.8336
 30
0.0
 11
155.02
 21
35.833
 31
0.0
  0
LINE
  8
0
 62
     0
 10
135.97
 20
35.833
 30
0.0
 11
149.969
 21
35.833
 31
0.0
  0
LINE
  8
0
 62
     0
 10
149.969
 20
35.833
 30
0.0
 11
149.969
 21
21.8336
 31
0.0
  0
LINE
  8
0
 62
     0
 10
149.969
 20
21.8336
 30
0.0
 11
135.97
 21
21.8336
 31
0.0
  0
LINE
  8
0
 62
     0
 10
135.97
 20
21.8336
 30
0.0
 11
135.97
 21
35.833
 31
0.0
  0
LINE
  8
0
 62
     0
 10
116.918
 20
35.833
 30
0.0
 11
130.919
 21
35.833
 31
0.0
  0
LINE
  8
0
 62
     0
 10
130.919
 20
35.833
 30
0.0
 11
130.919
 21
21.8336
 31
0.0
  0
LINE
  8
0
 62
     0
 10
130.919
 20
21.8336
 30
0.0
 11
116.918
 21
21.8336
 31
0.0
  0
LINE
  8
0
 62
     0
 10
116.918
 20
21.8336
 30
0.0
 11
116.918
 21
35.833
 31
0.0
  0
LINE
  8
0
 62
     0
 10
97.8683
 20
35.833
 30
0.0
 11
111.869
 21
35.833
 31
0.0
  0
LINE
  8
0
 62
     0
 10
111.869
 20
35.833
 30
0.0
 11
111.869
 21
21.8336
 31
0.0
  0
LINE
  8
0
 62
     0
 10
111.869
 20
21.8336
 30
0.0
 11
97.8683
 21
21.8336
 31
0.0
  0
LINE
  8
0
 62
     0
 10
97.8683
 20
21.8336
 30
0.0
 11
97.8683
 21
35.833
 31
0.0
  0
LINE
  8
0
 62
     0
 10
78.8197
 20
35.833
 30
0.0
 11
92.819
 21
35.833
 31
0.0
  0
LINE
  8
0
 62
     0
 10
92.819
 20
35.833
 30
0.0
 11
92.819
 21
21.8336
 31
0.0
  0
LINE
  8
0
 62
     0
 10
92.819
 20
21.8336
 30
0.0
 11
78.8197
 21
21.8336
 31
0.0
  0
LINE
  8
0
 62
     0
 10
78.8197
 20
21.8336
 30
0.0
 11
78.8197
 21
35.833
 31
0.0
  0
LINE
  8
0
 62
     0
 10
59.7697
 20
35.833
 30
0.0
 11
73.769
 21
35.833
 31
0.0
  0
LINE
  8
0
 62
     0
 10
73.769
 20
35.833
 30
0.0
 11
73.769
 21
21.8336
 31
0.0
  0
LINE
  8
0
 62
     0
 10
73.769
 20
21.8336
 30
0.0
 11
59.7697
 21
21.8336
 31
0.0
  0
LINE
  8
0
 62
     0
 10
59.7697
 20
21.8336
 30
0.0
 11
59.7697
 21
35.833
 31
0.0
  0
LINE
  8
0
 62
     0
 10
40.7197
 20
35.833
 30
0.0
 11
54.719
 21
35.833
 31
0.0
  0
LINE
  8
0
 62
     0
 10
54.719
 20
35.833
 30
0.0
 11
54.719
 21
21.8336
 31
0.0
  0
LINE
  8
0
 62
     0
 10
54.719
 20
21.8336
 30
0.0
 11
40.7197
 21
21.8336
 31
0.0
  0
LINE
  8
0
 62
     0
 10
40.7197
 20
21.8336
 30
0.0
 11
40.7197
 21
35.833
 31
0.0
  0
LINE
  8
0
 62
     0
 10
257.412
 20
54.8831
 30
0.0
 11
257.412
 21
50.1826
 31
0.0
  0
LINE
  8
0
 62
     0
 10
257.412
 20
50.1826
 30
0.0
 11
255.888
 21
50.1826
 31
0.0
  0
LINE
  8
0
 62
     0
 10
255.888
 20
50.1826
 30
0.0
 11
255.888
 21
53.4127
 31
0.0
  0
LINE
  8
0
 62
     0
 10
255.888
 20
53.4127
 30
0.0
 11
249.137
 21
53.4127
 31
0.0
  0
LINE
  8
0
 62
     0
 10
249.137
 20
53.4127
 30
0.0
 11
249.137
 21
50.1826
 31
0.0
  0
LINE
  8
0
 62
     0
 10
249.137
 20
50.1826
 30
0.0
 11
248.313
 21
50.1826
 31
0.0
  0
LINE
  8
0
 62
     0
 10
248.313
 20
50.1826
 30
0.0
 11
248.313
 21
47.3837
 31
0.0
  0
LINE
  8
0
 62
     0
 10
248.313
 20
47.3837
 30
0.0
 11
249.137
 21
47.3837
 31
0.0
  0
LINE
  8
0
 62
     0
 10
249.137
 20
47.3837
 30
0.0
 11
249.137
 21
41.1138
 31
0.0
  0
LINE
  8
0
 62
     0
 10
249.137
 20
41.1138
 30
0.0
 11
250.862
 21
41.1138
 31
0.0
  0
LINE
  8
0
 62
     0
 10
250.862
 20
41.1138
 30
0.0
 11
250.862
 21
39.9136
 31
0.0
  0
LINE
  8
0
 62
     0
 10
250.862
 20
39.9136
 30
0.0
 11
254.161
 21
39.9136
 31
0.0
  0
LINE
  8
0
 62
     0
 10
254.161
 20
39.9136
 30
0.0
 11
254.161
 21
41.1138
 31
0.0
  0
LINE
  8
0
 62
     0
 10
254.161
 20
41.1138
 30
0.0
 11
255.888
 21
41.1138
 31
0.0
  0
LINE
  8
0
 62
     0
 10
255.888
 20
41.1138
 30
0.0
 11
255.888
 21
45.5828
 31
0.0
  0
LINE
  8
0
 62
     0
 10
255.888
 20
45.5828
 30
0.0
 11
257.412
 21
45.5828
 31
0.0
  0
LINE
  8
0
 62
     0
 10
257.412
 20
45.5828
 30
0.0
 11
257.412
 21
40.8838
 31
0.0
  0
LINE
  8
0
 62
     0
 10
257.412
 20
40.8838
 30
0.0
 11
271.413
 21
40.8838
 31
0.0
  0
LINE
  8
0
 62
     0
 10
271.413
 20
40.8838
 30
0.0
 11
271.413
 21
45.5828
 31
0.0
  0
LINE
  8
0
 62
     0
 10
271.413
 20
45.5828
 30
0.0
 11
272.937
 21
45.5828
 31
0.0
  0
LINE
  8
0
 62
     0
 10
272.937
 20
45.5828
 30
0.0
 11
272.937
 21
41.1138
 31
0.0
  0
LINE
  8
0
 62
     0
 10
272.937
 20
41.1138
 30
0.0
 11
274.662
 21
41.1138
 31
0.0
  0
LINE
  8
0
 62
     0
 10
274.662
 20
41.1138
 30
0.0
 11
274.662
 21
39.9136
 31
0.0
  0
LINE
  8
0
 62
     0
 10
274.662
 20
39.9136
 30
0.0
 11
277.963
 21
39.9136
 31
0.0
  0
LINE
  8
0
 62
     0
 10
277.963
 20
39.9136
 30
0.0
 11
277.963
 21
41.1138
 31
0.0
  0
LINE
  8
0
 62
     0
 10
277.963
 20
41.1138
 30
0.0
 11
279.688
 21
41.1138
 31
0.0
  0
LINE
  8
0
 62
     0
 10
279.688
 20
41.1138
 30
0.0
 11
279.688
 21
47.3837
 31
0.0
  0
LINE
  8
0
 62
     0
 10
279.688
 20
47.3837
 30
0.0
 11
280.512
 21
47.3837
 31
0.0
  0
LINE
  8
0
 62
     0
 10
280.512
 20
47.3837
 30
0.0
 11
280.512
 21
50.1826
 31
0.0
  0
LINE
  8
0
 62
     0
 10
280.512
 20
50.1826
 30
0.0
 11
279.688
 21
50.1826
 31
0.0
  0
LINE
  8
0
 62
     0
 10
279.688
 20
50.1826
 30
0.0
 11
279.688
 21
53.4127
 31
0.0
  0
LINE
  8
0
 62
     0
 10
279.688
 20
53.4127
 30
0.0
 11
272.937
 21
53.4127
 31
0.0
  0
LINE
  8
0
 62
     0
 10
272.937
 20
53.4127
 30
0.0
 11
272.937
 21
50.1826
 31
0.0
  0
LINE
  8
0
 62
     0
 10
272.937
 20
50.1826
 30
0.0
 11
271.413
 21
50.1826
 31
0.0
  0
LINE
  8
0
 62
     0
 10
271.413
 20
50.1826
 30
0.0
 11
271.413
 21
54.8831
 31
0.0
  0
LINE
  8
0
 62
     0
 10
271.413
 20
54.8831
 30
0.0
 11
257.412
 21
54.8831
 31
0.0
  0
LINE
  8
0
 62
     0
 10
226.457
 20
54.8831
 30
0.0
 11
240.457
 21
54.8831
 31
0.0
  0
LINE
  8
0
 62
     0
 10
240.457
 20
54.8831
 30
0.0
 11
240.457
 21
40.8838
 31
0.0
  0
LINE
  8
0
 62
     0
 10
240.457
 20
40.8838
 30
0.0
 11
226.457
 21
40.8838
 31
0.0
  0
LINE
  8
0
 62
     0
 10
226.457
 20
40.8838
 30
0.0
 11
226.457
 21
54.8831
 31
0.0
  0
LINE
  8
0
 62
     0
 10
207.407
 20
54.8831
 30
0.0
 11
221.407
 21
54.8831
 31
0.0
  0
LINE
  8
0
 62
     0
 10
221.407
 20
54.8831
 30
0.0
 11
221.407
 21
40.8838
 31
0.0
  0
LINE
  8
0
 62
     0
 10
221.407
 20
40.8838
 30
0.0
 11
207.407
 21
40.8838
 31
0.0
  0
LINE
  8
0
 62
     0
 10
207.407
 20
40.8838
 30
0.0
 11
207.407
 21
54.8831
 31
0.0
  0
LINE
  8
0
 62
     0
 10
188.357
 20
54.8831
 30
0.0
 11
202.357
 21
54.8831
 31
0.0
  0
LINE
  8
0
 62
     0
 10
202.357
 20
54.8831
 30
0.0
 11
202.357
 21
40.8838
 31
0.0
  0
LINE
  8
0
 62
     0
 10
202.357
 20
40.8838
 30
0.0
 11
188.357
 21
40.8838
 31
0.0
  0
LINE
  8
0
 62
     0
 10
188.357
 20
40.8838
 30
0.0
 11
188.357
 21
54.8831
 31
0.0
  0
LINE
  8
0
 62
     0
 10
169.307
 20
54.8831
 30
0.0
 11
183.307
 21
54.8831
 31
0.0
  0
LINE
  8
0
 62
     0
 10
183.307
 20
54.8831
 30
0.0
 11
183.307
 21
40.8838
 31
0.0
  0
LINE
  8
0
 62
     0
 10
183.307
 20
40.8838
 30
0.0
 11
169.307
 21
40.8838
 31
0.0
  0
LINE
  8
0
 62
     0
 10
169.307
 20
40.8838
 30
0.0
 11
169.307
 21
54.8831
 31
0.0
  0
LINE
  8
0
 62
     0
 10
150.257
 20
54.8831
 30
0.0
 11
164.257
 21
54.8831
 31
0.0
  0
LINE
  8
0
 62
     0
 10
164.257
 20
54.8831
 30
0.0
 11
164.257
 21
40.8838
 31
0.0
  0
LINE
  8
0
 62
     0
 10
164.257
 20
40.8838
 30
0.0
 11
150.257
 21
40.8838
 31
0.0
  0
LINE
  8
0
 62
     0
 10
150.257
 20
40.8838
 30
0.0
 11
150.257
 21
54.8831
 31
0.0
  0
LINE
  8
0
 62
     0
 10
131.207
 20
54.8831
 30
0.0
 11
145.207
 21
54.8831
 31
0.0
  0
LINE
  8
0
 62
     0
 10
145.207
 20
54.8831
 30
0.0
 11
145.207
 21
40.8838
 31
0.0
  0
LINE
  8
0
 62
     0
 10
145.207
 20
40.8838
 30
0.0
 11
131.207
 21
40.8838
 31
0.0
  0
LINE
  8
0
 62
     0
 10
131.207
 20
40.8838
 30
0.0
 11
131.207
 21
54.8831
 31
0.0
  0
LINE
  8
0
 62
     0
 10
112.157
 20
54.8831
 30
0.0
 11
126.157
 21
54.8831
 31
0.0
  0
LINE
  8
0
 62
     0
 10
126.157
 20
54.8831
 30
0.0
 11
126.157
 21
40.8838
 31
0.0
  0
LINE
  8
0
 62
     0
 10
126.157
 20
40.8838
 30
0.0
 11
112.157
 21
40.8838
 31
0.0
  0
LINE
  8
0
 62
     0
 10
112.157
 20
40.8838
 30
0.0
 11
112.157
 21
54.8831
 31
0.0
  0
LINE
  8
0
 62
     0
 10
93.1072
 20
54.8831
 30
0.0
 11
107.107
 21
54.8831
 31
0.0
  0
LINE
  8
0
 62
     0
 10
107.107
 20
54.8831
 30
0.0
 11
107.107
 21
40.8838
 31
0.0
  0
LINE
  8
0
 62
     0
 10
107.107
 20
40.8838
 30
0.0
 11
93.1072
 21
40.8838
 31
0.0
  0
LINE
  8
0
 62
     0
 10
93.1072
 20
40.8838
 30
0.0
 11
93.1072
 21
54.8831
 31
0.0
  0
LINE
  8
0
 62
     0
 10
74.0572
 20
54.8831
 30
0.0
 11
88.0565
 21
54.8831
 31
0.0
  0
LINE
  8
0
 62
     0
 10
88.0565
 20
54.8831
 30
0.0
 11
88.0565
 21
40.8838
 31
0.0
  0
LINE
  8
0
 62
     0
 10
88.0565
 20
40.8838
 30
0.0
 11
74.0572
 21
40.8838
 31
0.0
  0
LINE
  8
0
 62
     0
 10
74.0572
 20
40.8838
 30
0.0
 11
74.0572
 21
54.8831
 31
0.0
  0
LINE
  8
0
 62
     0
 10
55.0072
 20
54.8831
 30
0.0
 11
69.0065
 21
54.8831
 31
0.0
  0
LINE
  8
0
 62
     0
 10
69.0065
 20
54.8831
 30
0.0
 11
69.0065
 21
40.8838
 31
0.0
  0
LINE
  8
0
 62
     0
 10
69.0065
 20
40.8838
 30
0.0
 11
55.0072
 21
40.8838
 31
0.0
  0
LINE
  8
0
 62
     0
 10
55.0072
 20
40.8838
 30
0.0
 11
55.0072
 21
54.8831
 31
0.0
  0
LINE
  8
0
 62
     0
 10
35.9572
 20
54.8831
 30
0.0
 11
49.9565
 21
54.8831
 31
0.0
  0
LINE
  8
0
 62
     0
 10
49.9565
 20
54.8831
 30
0.0
 11
49.9565
 21
40.8838
 31
0.0
  0
LINE
  8
0
 62
     0
 10
49.9565
 20
40.8838
 30
0.0
 11
35.9572
 21
40.8838
 31
0.0
  0
LINE
  8
0
 62
     0
 10
35.9572
 20
40.8838
 30
0.0
 11
35.9572
 21
54.8831
 31
0.0
  0
LINE
  8
0
 62
     0
 10
9.76203
 20
54.8831
 30
0.0
 11
23.7629
 21
54.8831
 31
0.0
  0
LINE
  8
0
 62
     0
 10
23.7629
 20
54.8831
 30
0.0
 11
23.7629
 21
40.8838
 31
0.0
  0
LINE
  8
0
 62
     0
 10
23.7629
 20
40.8838
 30
0.0
 11
9.76203
 21
40.8838
 31
0.0
  0
LINE
  8
0
 62
     0
 10
9.76203
 20
40.8838
 30
0.0
 11
9.76203
 21
54.8831
 31
0.0
  0
LINE
  8
0
 62
     0
 10
266.937
 20
73.9331
 30
0.0
 11
280.938
 21
73.9331
 31
0.0
  0
LINE
  8
0
 62
     0
 10
280.938
 20
73.9331
 30
0.0
 11
280.938
 21
59.9338
 31
0.0
  0
LINE
  8
0
 62
     0
 10
280.938
 20
59.9338
 30
0.0
 11
266.937
 21
59.9338
 31
0.0
  0
LINE
  8
0
 62
     0
 10
266.937
 20
59.9338
 30
0.0
 11
266.937
 21
73.9331
 31
0.0
  0
LINE
  8
0
 62
     0
 10
243.126
 20
73.9331
 30
0.0
 11
257.125
 21
73.9331
 31
0.0
  0
LINE
  8
0
 62
     0
 10
257.125
 20
73.9331
 30
0.0
 11
257.125
 21
59.9338
 31
0.0
  0
LINE
  8
0
 62
     0
 10
257.125
 20
59.9338
 30
0.0
 11
243.126
 21
59.9338
 31
0.0
  0
LINE
  8
0
 62
     0
 10
243.126
 20
59.9338
 30
0.0
 11
243.126
 21
73.9331
 31
0.0
  0
LINE
  8
0
 62
     0
 10
221.695
 20
73.9331
 30
0.0
 11
235.694
 21
73.9331
 31
0.0
  0
LINE
  8
0
 62
     0
 10
235.694
 20
73.9331
 30
0.0
 11
235.694
 21
59.9338
 31
0.0
  0
LINE
  8
0
 62
     0
 10
235.694
 20
59.9338
 30
0.0
 11
221.695
 21
59.9338
 31
0.0
  0
LINE
  8
0
 62
     0
 10
221.695
 20
59.9338
 30
0.0
 11
221.695
 21
73.9331
 31
0.0
  0
LINE
  8
0
 62
     0
 10
202.645
 20
73.9331
 30
0.0
 11
216.644
 21
73.9331
 31
0.0
  0
LINE
  8
0
 62
     0
 10
216.644
 20
73.9331
 30
0.0
 11
216.644
 21
59.9338
 31
0.0
  0
LINE
  8
0
 62
     0
 10
216.644
 20
59.9338
 30
0.0
 11
202.645
 21
59.9338
 31
0.0
  0
LINE
  8
0
 62
     0
 10
202.645
 20
59.9338
 30
0.0
 11
202.645
 21
73.9331
 31
0.0
  0
LINE
  8
0
 62
     0
 10
183.595
 20
73.9331
 30
0.0
 11
197.594
 21
73.9331
 31
0.0
  0
LINE
  8
0
 62
     0
 10
197.594
 20
73.9331
 30
0.0
 11
197.594
 21
59.9338
 31
0.0
  0
LINE
  8
0
 62
     0
 10
197.594
 20
59.9338
 30
0.0
 11
183.595
 21
59.9338
 31
0.0
  0
LINE
  8
0
 62
     0
 10
183.595
 20
59.9338
 30
0.0
 11
183.595
 21
73.9331
 31
0.0
  0
LINE
  8
0
 62
     0
 10
164.545
 20
73.9331
 30
0.0
 11
178.544
 21
73.9331
 31
0.0
  0
LINE
  8
0
 62
     0
 10
178.544
 20
73.9331
 30
0.0
 11
178.544
 21
59.9338
 31
0.0
  0
LINE
  8
0
 62
     0
 10
178.544
 20
59.9338
 30
0.0
 11
164.545
 21
59.9338
 31
0.0
  0
LINE
  8
0
 62
     0
 10
164.545
 20
59.9338
 30
0.0
 11
164.545
 21
73.9331
 31
0.0
  0
LINE
  8
0
 62
     0
 10
145.495
 20
73.9331
 30
0.0
 11
159.494
 21
73.9331
 31
0.0
  0
LINE
  8
0
 62
     0
 10
159.494
 20
73.9331
 30
0.0
 11
159.494
 21
59.9338
 31
0.0
  0
LINE
  8
0
 62
     0
 10
159.494
 20
59.9338
 30
0.0
 11
145.495
 21
59.9338
 31
0.0
  0
LINE
  8
0
 62
     0
 10
145.495
 20
59.9338
 30
0.0
 11
145.495
 21
73.9331
 31
0.0
  0
LINE
  8
0
 62
     0
 10
126.445
 20
73.9331
 30
0.0
 11
140.444
 21
73.9331
 31
0.0
  0
LINE
  8
0
 62
     0
 10
140.444
 20
73.9331
 30
0.0
 11
140.444
 21
59.9338
 31
0.0
  0
LINE
  8
0
 62
     0
 10
140.444
 20
59.9338
 30
0.0
 11
126.445
 21
59.9338
 31
0.0
  0
LINE
  8
0
 62
     0
 10
126.445
 20
59.9338
 30
0.0
 11
126.445
 21
73.9331
 31
0.0
  0
LINE
  8
0
 62
     0
 10
107.395
 20
73.9331
 30
0.0
 11
121.394
 21
73.9331
 31
0.0
  0
LINE
  8
0
 62
     0
 10
121.394
 20
73.9331
 30
0.0
 11
121.394
 21
59.9338
 31
0.0
  0
LINE
  8
0
 62
     0
 10
121.394
 20
59.9338
 30
0.0
 11
107.395
 21
59.9338
 31
0.0
  0
LINE
  8
0
 62
     0
 10
107.395
 20
59.9338
 30
0.0
 11
107.395
 21
73.9331
 31
0.0
  0
LINE
  8
0
 62
     0
 10
88.3447
 20
73.9331
 30
0.0
 11
102.344
 21
73.9331
 31
0.0
  0
LINE
  8
0
 62
     0
 10
102.344
 20
73.9331
 30
0.0
 11
102.344
 21
59.9338
 31
0.0
  0
LINE
  8
0
 62
     0
 10
102.344
 20
59.9338
 30
0.0
 11
88.3447
 21
59.9338
 31
0.0
  0
LINE
  8
0
 62
     0
 10
88.3447
 20
59.9338
 30
0.0
 11
88.3447
 21
73.9331
 31
0.0
  0
LINE
  8
0
 62
     0
 10
69.2947
 20
73.9331
 30
0.0
 11
83.294
 21
73.9331
 31
0.0
  0
LINE
  8
0
 62
     0
 10
83.294
 20
73.9331
 30
0.0
 11
83.294
 21
59.9338
 31
0.0
  0
LINE
  8
0
 62
     0
 10
83.294
 20
59.9338
 30
0.0
 11
69.2947
 21
59.9338
 31
0.0
  0
LINE
  8
0
 62
     0
 10
69.2947
 20
59.9338
 30
0.0
 11
69.2947
 21
73.9331
 31
0.0
  0
LINE
  8
0
 62
     0
 10
50.2447
 20
73.9331
 30
0.0
 11
64.244
 21
73.9331
 31
0.0
  0
LINE
  8
0
 62
     0
 10
64.244
 20
73.9331
 30
0.0
 11
64.244
 21
59.9338
 31
0.0
  0
LINE
  8
0
 62
     0
 10
64.244
 20
59.9338
 30
0.0
 11
50.2447
 21
59.9338
 31
0.0
  0
LINE
  8
0
 62
     0
 10
50.2447
 20
59.9338
 30
0.0
 11
50.2447
 21
73.9331
 31
0.0
  0
LINE
  8
0
 62
     0
 10
31.1947
 20
73.9331
 30
0.0
 11
45.194
 21
73.9331
 31
0.0
  0
LINE
  8
0
 62
     0
 10
45.194
 20
73.9331
 30
0.0
 11
45.194
 21
59.9338
 31
0.0
  0
LINE
  8
0
 62
     0
 10
45.194
 20
59.9338
 30
0.0
 11
31.1947
 21
59.9338
 31
0.0
  0
LINE
  8
0
 62
     0
 10
31.1947
 20
59.9338
 30
0.0
 11
31.1947
 21
73.9331
 31
0.0
  0
LINE
  8
0
 62
     0
 10
7.38216
 20
73.9331
 30
0.0
 11
21.3817
 21
73.9331
 31
0.0
  0
LINE
  8
0
 62
     0
 10
21.3817
 20
73.9331
 30
0.0
 11
21.3817
 21
59.9338
 31
0.0
  0
LINE
  8
0
 62
     0
 10
21.3817
 20
59.9338
 30
0.0
 11
7.38216
 21
59.9338
 31
0.0
  0
LINE
  8
0
 62
     0
 10
7.38216
 20
59.9338
 30
0.0
 11
7.38216
 21
73.9331
 31
0.0
  0
LINE
  8
0
 62
     0
 10
269.32
 20
92.9831
 30
0.0
 11
283.319
 21
92.9831
 31
0.0
  0
LINE
  8
0
 62
     0
 10
283.319
 20
92.9831
 30
0.0
 11
283.319
 21
78.9838
 31
0.0
  0
LINE
  8
0
 62
     0
 10
283.319
 20
78.9838
 30
0.0
 11
269.32
 21
78.9838
 31
0.0
  0
LINE
  8
0
 62
     0
 10
269.32
 20
78.9838
 30
0.0
 11
269.32
 21
92.9831
 31
0.0
  0
LINE
  8
0
 62
     0
 10
250.27
 20
92.9831
 30
0.0
 11
264.269
 21
92.9831
 31
0.0
  0
LINE
  8
0
 62
     0
 10
264.269
 20
92.9831
 30
0.0
 11
264.269
 21
78.9838
 31
0.0
  0
LINE
  8
0
 62
     0
 10
264.269
 20
78.9838
 30
0.0
 11
250.27
 21
78.9838
 31
0.0
  0
LINE
  8
0
 62
     0
 10
250.27
 20
78.9838
 30
0.0
 11
250.27
 21
92.9831
 31
0.0
  0
LINE
  8
0
 62
     0
 10
231.22
 20
92.9831
 30
0.0
 11
245.219
 21
92.9831
 31
0.0
  0
LINE
  8
0
 62
     0
 10
245.219
 20
92.9831
 30
0.0
 11
245.219
 21
78.9838
 31
0.0
  0
LINE
  8
0
 62
     0
 10
245.219
 20
78.9838
 30
0.0
 11
231.22
 21
78.9838
 31
0.0
  0
LINE
  8
0
 62
     0
 10
231.22
 20
78.9838
 30
0.0
 11
231.22
 21
92.9831
 31
0.0
  0
LINE
  8
0
 62
     0
 10
212.17
 20
92.9831
 30
0.0
 11
226.169
 21
92.9831
 31
0.0
  0
LINE
  8
0
 62
     0
 10
226.169
 20
92.9831
 30
0.0
 11
226.169
 21
78.9838
 31
0.0
  0
LINE
  8
0
 62
     0
 10
226.169
 20
78.9838
 30
0.0
 11
212.17
 21
78.9838
 31
0.0
  0
LINE
  8
0
 62
     0
 10
212.17
 20
78.9838
 30
0.0
 11
212.17
 21
92.9831
 31
0.0
  0
LINE
  8
0
 62
     0
 10
193.12
 20
92.9831
 30
0.0
 11
207.119
 21
92.9831
 31
0.0
  0
LINE
  8
0
 62
     0
 10
207.119
 20
92.9831
 30
0.0
 11
207.119
 21
78.9838
 31
0.0
  0
LINE
  8
0
 62
     0
 10
207.119
 20
78.9838
 30
0.0
 11
193.12
 21
78.9838
 31
0.0
  0
LINE
  8
0
 62
     0
 10
193.12
 20
78.9838
 30
0.0
 11
193.12
 21
92.9831
 31
0.0
  0
LINE
  8
0
 62
     0
 10
174.07
 20
92.9831
 30
0.0
 11
188.069
 21
92.9831
 31
0.0
  0
LINE
  8
0
 62
     0
 10
188.069
 20
92.9831
 30
0.0
 11
188.069
 21
78.9838
 31
0.0
  0
LINE
  8
0
 62
     0
 10
188.069
 20
78.9838
 30
0.0
 11
174.07
 21
78.9838
 31
0.0
  0
LINE
  8
0
 62
     0
 10
174.07
 20
78.9838
 30
0.0
 11
174.07
 21
92.9831
 31
0.0
  0
LINE
  8
0
 62
     0
 10
155.02
 20
92.9831
 30
0.0
 11
169.019
 21
92.9831
 31
0.0
  0
LINE
  8
0
 62
     0
 10
169.019
 20
92.9831
 30
0.0
 11
169.019
 21
78.9838
 31
0.0
  0
LINE
  8
0
 62
     0
 10
169.019
 20
78.9838
 30
0.0
 11
155.02
 21
78.9838
 31
0.0
  0
LINE
  8
0
 62
     0
 10
155.02
 20
78.9838
 30
0.0
 11
155.02
 21
92.9831
 31
0.0
  0
LINE
  8
0
 62
     0
 10
135.97
 20
92.9831
 30
0.0
 11
149.969
 21
92.9831
 31
0.0
  0
LINE
  8
0
 62
     0
 10
149.969
 20
92.9831
 30
0.0
 11
149.969
 21
78.9838
 31
0.0
  0
LINE
  8
0
 62
     0
 10
149.969
 20
78.9838
 30
0.0
 11
135.97
 21
78.9838
 31
0.0
  0
LINE
  8
0
 62
     0
 10
135.97
 20
78.9838
 30
0.0
 11
135.97
 21
92.9831
 31
0.0
  0
LINE
  8
0
 62
     0
 10
116.918
 20
92.9831
 30
0.0
 11
130.919
 21
92.9831
 31
0.0
  0
LINE
  8
0
 62
     0
 10
130.919
 20
92.9831
 30
0.0
 11
130.919
 21
78.9838
 31
0.0
  0
LINE
  8
0
 62
     0
 10
130.919
 20
78.9838
 30
0.0
 11
116.918
 21
78.9838
 31
0.0
  0
LINE
  8
0
 62
     0
 10
116.918
 20
78.9838
 30
0.0
 11
116.918
 21
92.9831
 31
0.0
  0
LINE
  8
0
 62
     0
 10
97.8683
 20
92.9831
 30
0.0
 11
111.869
 21
92.9831
 31
0.0
  0
LINE
  8
0
 62
     0
 10
111.869
 20
92.9831
 30
0.0
 11
111.869
 21
78.9838
 31
0.0
  0
LINE
  8
0
 62
     0
 10
111.869
 20
78.9838
 30
0.0
 11
97.8683
 21
78.9838
 31
0.0
  0
LINE
  8
0
 62
     0
 10
97.8683
 20
78.9838
 30
0.0
 11
97.8683
 21
92.9831
 31
0.0
  0
LINE
  8
0
 62
     0
 10
78.8197
 20
92.9831
 30
0.0
 11
92.819
 21
92.9831
 31
0.0
  0
LINE
  8
0
 62
     0
 10
92.819
 20
92.9831
 30
0.0
 11
92.819
 21
78.9838
 31
0.0
  0
LINE
  8
0
 62
     0
 10
92.819
 20
78.9838
 30
0.0
 11
78.8197
 21
78.9838
 31
0.0
  0
LINE
  8
0
 62
     0
 10
78.8197
 20
78.9838
 30
0.0
 11
78.8197
 21
92.9831
 31
0.0
  0
LINE
  8
0
 62
     0
 10
59.7697
 20
92.9831
 30
0.0
 11
73.769
 21
92.9831
 31
0.0
  0
LINE
  8
0
 62
     0
 10
73.769
 20
92.9831
 30
0.0
 11
73.769
 21
78.9838
 31
0.0
  0
LINE
  8
0
 62
     0
 10
73.769
 20
78.9838
 30
0.0
 11
59.7697
 21
78.9838
 31
0.0
  0
LINE
  8
0
 62
     0
 10
59.7697
 20
78.9838
 30
0.0
 11
59.7697
 21
92.9831
 31
0.0
  0
LINE
  8
0
 62
     0
 10
40.7197
 20
92.9831
 30
0.0
 11
54.719
 21
92.9831
 31
0.0
  0
LINE
  8
0
 62
     0
 10
54.719
 20
92.9831
 30
0.0
 11
54.719
 21
78.9838
 31
0.0
  0
LINE
  8
0
 62
     0
 10
54.719
 20
78.9838
 30
0.0
 11
40.7197
 21
78.9838
 31
0.0
  0
LINE
  8
0
 62
     0
 10
40.7197
 20
78.9838
 30
0.0
 11
40.7197
 21
92.9831
 31
0.0
  0
LINE
  8
0
 62
     0
 10
21.6697
 20
92.9831
 30
0.0
 11
35.669
 21
92.9831
 31
0.0
  0
LINE
  8
0
 62
     0
 10
35.669
 20
92.9831
 30
0.0
 11
35.669
 21
78.9838
 31
0.0
  0
LINE
  8
0
 62
     0
 10
35.669
 20
78.9838
 30
0.0
 11
21.6697
 21
78.9838
 31
0.0
  0
LINE
  8
0
 62
     0
 10
21.6697
 20
78.9838
 30
0.0
 11
21.6697
 21
92.9831
 31
0.0
  0
LINE
  8
0
 62
     0
 10
2.61965
 20
92.9831
 30
0.0
 11
16.6192
 21
92.9831
 31
0.0
  0
LINE
  8
0
 62
     0
 10
16.6192
 20
92.9831
 30
0.0
 11
16.6192
 21
78.9838
 31
0.0
  0
LINE
  8
0
 62
     0
 10
16.6192
 20
78.9838
 30
0.0
 11
2.61965
 21
78.9838
 31
0.0
  0
LINE
  8
0
 62
     0
 10
2.61965
 20
78.9838
 30
0.0
 11
2.61965
 21
92.9831
 31
0.0
  0
ENDSEC
  0
EOF
